<svg xmlns="http://www.w3.org/2000/svg" viewBox="0 0 240 480" fill="none">
  <g stroke="#9B8573" stroke-width="3.5" stroke-linecap="round" stroke-linejoin="round" fill="none">
    <!-- Head: continuous loop -->
    <path d="M120 70 C 104 70 96 82 96 96 C 96 108 102 116 110 120" />
    <!-- Neck + right shoulder + right arm -->
    <path d="M110 120 C 116 126 118 134 116 144 C 132 150 148 162 152 184 C 154 220 150 254 144 282 C 142 296 142 308 146 322" />
    <!-- Right leg flowing down -->
    <path d="M146 322 C 150 348 152 376 148 404 C 146 422 144 438 140 452" />
    <!-- Cross over: left leg curving up and across -->
    <path d="M140 452 C 122 446 110 432 108 412 C 106 388 112 358 118 328 C 122 308 122 290 116 274" />
    <!-- Up through inner torso -->
    <path d="M116 274 C 110 256 104 240 100 222 C 96 200 92 178 90 162" />
    <!-- Left shoulder + left arm down to hip -->
    <path d="M90 162 C 86 154 84 142 86 130 C 78 146 76 168 80 196 C 84 230 86 264 84 296 C 82 318 84 338 90 356" />
    <!-- Left leg cross-back -->
    <path d="M90 356 C 96 380 100 408 98 432 C 96 446 100 458 110 462" />
    <!-- Close: head back to start of right side -->
    <path d="M86 130 C 86 110 96 96 110 90 C 118 86 124 80 124 70 C 124 66 122 64 120 70" />
  </g>
</svg>
